<?xml version="1.0" encoding="iso-8859-1"?>
<!-- Uploaded to: SVG Repo, www.svgrepo.com, Generator: SVG Repo Mixer Tools -->
<svg height="800px" width="800px" version="1.1" id="Layer_1" xmlns="http://www.w3.org/2000/svg" xmlns:xlink="http://www.w3.org/1999/xlink" 
	 viewBox="0 0 512.001 512.001" xml:space="preserve">
<g>
	<g>
		<g>
			<path style="fill:#231F20;" d="M436.376,88.867h-67.687V20.911C368.689,9.363,359.326,0,347.778,0H75.624
				C64.075,0,54.713,9.363,54.713,20.911v381.312c0,11.548,9.362,20.911,20.911,20.911h67.687v67.956
				c0,11.548,9.363,20.911,20.911,20.911h272.156c11.548,0,20.911-9.363,20.911-20.911V109.778
				C457.287,98.228,447.926,88.867,436.376,88.867z M96.535,381.312V41.822h230.334c0,15.835,0,326.777,0,339.49
				C314.145,381.312,109.205,381.312,96.535,381.312z M415.467,470.178h-0.001H185.133v-47.045h162.647
				c11.548,0,20.911-9.362,20.911-20.911V130.689h46.776V470.178z"/>
			<path style="fill:#231F20;" d="M274.611,83.234H148.788c-11.548,0-20.911,9.362-20.911,20.911v78.127
				c0,11.55,9.363,20.911,20.911,20.911h125.822c11.548,0,20.911-9.363,20.911-20.911v-78.127
				C295.522,92.596,286.159,83.234,274.611,83.234z M253.7,161.361h-84.001v-36.306H253.7V161.361z"/>
			<path style="fill:#231F20;" d="M274.611,231.608H148.788c-11.548,0-20.911,9.363-20.911,20.911s9.363,20.911,20.911,20.911
				h125.822c11.548,0,20.911-9.363,20.911-20.911S286.159,231.608,274.611,231.608z"/>
			<path style="fill:#231F20;" d="M274.611,295.296H148.788c-11.548,0-20.911,9.363-20.911,20.911s9.363,20.911,20.911,20.911
				h125.822c11.55,0,20.911-9.362,20.911-20.911S286.159,295.296,274.611,295.296z"/>
		</g>
	</g>
</g>
</svg>